<mxfile host="65bd71144e" pages="2">
    <diagram id="xmgOxfRccMfLotidobE-" name="overview">
        <mxGraphModel dx="1067" dy="782" grid="1" gridSize="10" guides="1" tooltips="1" connect="1" arrows="1" fold="1" page="1" pageScale="1" pageWidth="1169" pageHeight="827" math="0" shadow="0">
            <root>
                <mxCell id="0"/>
                <mxCell id="1" parent="0"/>
                <mxCell id="OSURCzhRiH3PAvZomhgZ-1" value="overview" style="whiteSpace=wrap;html=1;fillColor=#60a917;strokeColor=#2D7600;fontColor=#ffffff;" parent="1" vertex="1">
                    <mxGeometry x="360" y="180" width="120" height="60" as="geometry"/>
                </mxCell>
                <mxCell id="OSURCzhRiH3PAvZomhgZ-2" value="pub/sub system" style="whiteSpace=wrap;html=1;" parent="1" vertex="1">
                    <mxGeometry x="530" y="90" width="120" height="60" as="geometry"/>
                </mxCell>
                <mxCell id="OSURCzhRiH3PAvZomhgZ-3" value="distributed event log" style="whiteSpace=wrap;html=1;" parent="1" vertex="1">
                    <mxGeometry x="540" y="200" width="120" height="60" as="geometry"/>
                </mxCell>
                <mxCell id="OSURCzhRiH3PAvZomhgZ-4" value="&lt;b&gt;immutable&lt;/b&gt; message" style="whiteSpace=wrap;html=1;" parent="1" vertex="1">
                    <mxGeometry x="710" y="70" width="120" height="60" as="geometry"/>
                </mxCell>
                <mxCell id="OSURCzhRiH3PAvZomhgZ-5" value="&amp;nbsp;data persist on disk" style="whiteSpace=wrap;html=1;" parent="1" vertex="1">
                    <mxGeometry x="360" y="100" width="120" height="60" as="geometry"/>
                </mxCell>
                <mxCell id="OSURCzhRiH3PAvZomhgZ-6" value="hybrid database + message system" style="whiteSpace=wrap;html=1;" parent="1" vertex="1">
                    <mxGeometry x="210" y="90" width="120" height="60" as="geometry"/>
                </mxCell>
                <mxCell id="OSURCzhRiH3PAvZomhgZ-7" value="" style="endArrow=none;html=1;" parent="1" source="OSURCzhRiH3PAvZomhgZ-3" target="OSURCzhRiH3PAvZomhgZ-1" edge="1">
                    <mxGeometry width="50" height="50" relative="1" as="geometry">
                        <mxPoint x="690" y="490" as="sourcePoint"/>
                        <mxPoint x="740" y="440" as="targetPoint"/>
                    </mxGeometry>
                </mxCell>
                <mxCell id="OSURCzhRiH3PAvZomhgZ-8" value="" style="endArrow=none;html=1;" parent="1" source="OSURCzhRiH3PAvZomhgZ-5" target="OSURCzhRiH3PAvZomhgZ-1" edge="1">
                    <mxGeometry width="50" height="50" relative="1" as="geometry">
                        <mxPoint x="700" y="500" as="sourcePoint"/>
                        <mxPoint x="750" y="450" as="targetPoint"/>
                    </mxGeometry>
                </mxCell>
                <mxCell id="OSURCzhRiH3PAvZomhgZ-9" value="" style="endArrow=none;html=1;" parent="1" source="OSURCzhRiH3PAvZomhgZ-4" target="OSURCzhRiH3PAvZomhgZ-3" edge="1">
                    <mxGeometry width="50" height="50" relative="1" as="geometry">
                        <mxPoint x="710" y="510" as="sourcePoint"/>
                        <mxPoint x="760" y="460" as="targetPoint"/>
                    </mxGeometry>
                </mxCell>
                <mxCell id="OSURCzhRiH3PAvZomhgZ-10" value="" style="endArrow=none;html=1;" parent="1" source="OSURCzhRiH3PAvZomhgZ-6" target="OSURCzhRiH3PAvZomhgZ-5" edge="1">
                    <mxGeometry width="50" height="50" relative="1" as="geometry">
                        <mxPoint x="720" y="520" as="sourcePoint"/>
                        <mxPoint x="770" y="470" as="targetPoint"/>
                    </mxGeometry>
                </mxCell>
                <mxCell id="OSURCzhRiH3PAvZomhgZ-11" value="" style="endArrow=none;html=1;" parent="1" source="OSURCzhRiH3PAvZomhgZ-15" target="OSURCzhRiH3PAvZomhgZ-1" edge="1">
                    <mxGeometry width="50" height="50" relative="1" as="geometry">
                        <mxPoint x="730" y="530" as="sourcePoint"/>
                        <mxPoint x="780" y="480" as="targetPoint"/>
                    </mxGeometry>
                </mxCell>
                <mxCell id="OSURCzhRiH3PAvZomhgZ-12" value="" style="endArrow=none;html=1;" parent="1" source="OSURCzhRiH3PAvZomhgZ-19" target="OSURCzhRiH3PAvZomhgZ-15" edge="1">
                    <mxGeometry width="50" height="50" relative="1" as="geometry">
                        <mxPoint x="740" y="540" as="sourcePoint"/>
                        <mxPoint x="790" y="490" as="targetPoint"/>
                    </mxGeometry>
                </mxCell>
                <mxCell id="OSURCzhRiH3PAvZomhgZ-13" value="" style="endArrow=none;html=1;" parent="1" source="OSURCzhRiH3PAvZomhgZ-15" target="OSURCzhRiH3PAvZomhgZ-17" edge="1">
                    <mxGeometry width="50" height="50" relative="1" as="geometry">
                        <mxPoint x="750" y="550" as="sourcePoint"/>
                        <mxPoint x="800" y="500" as="targetPoint"/>
                    </mxGeometry>
                </mxCell>
                <mxCell id="OSURCzhRiH3PAvZomhgZ-14" value="" style="endArrow=none;html=1;" parent="1" source="OSURCzhRiH3PAvZomhgZ-2" target="OSURCzhRiH3PAvZomhgZ-1" edge="1">
                    <mxGeometry width="50" height="50" relative="1" as="geometry">
                        <mxPoint x="760" y="560" as="sourcePoint"/>
                        <mxPoint x="810" y="510" as="targetPoint"/>
                    </mxGeometry>
                </mxCell>
                <mxCell id="OSURCzhRiH3PAvZomhgZ-15" value="main use" style="whiteSpace=wrap;html=1;" parent="1" vertex="1">
                    <mxGeometry x="190" y="250" width="120" height="60" as="geometry"/>
                </mxCell>
                <mxCell id="OSURCzhRiH3PAvZomhgZ-16" value="real-time data stream" style="whiteSpace=wrap;html=1;" parent="1" vertex="1">
                    <mxGeometry x="250" y="370" width="120" height="60" as="geometry"/>
                </mxCell>
                <mxCell id="OSURCzhRiH3PAvZomhgZ-17" value="data pipe-line" style="whiteSpace=wrap;html=1;" parent="1" vertex="1">
                    <mxGeometry x="330" y="270" width="120" height="60" as="geometry"/>
                </mxCell>
                <mxCell id="OSURCzhRiH3PAvZomhgZ-18" value="big data ingest" style="whiteSpace=wrap;html=1;" parent="1" vertex="1">
                    <mxGeometry x="80" y="350" width="120" height="60" as="geometry"/>
                </mxCell>
                <mxCell id="OSURCzhRiH3PAvZomhgZ-19" value="reliable,&lt;br&gt;high throughtput" style="whiteSpace=wrap;html=1;" parent="1" vertex="1">
                    <mxGeometry x="30" y="240" width="120" height="60" as="geometry"/>
                </mxCell>
                <mxCell id="OSURCzhRiH3PAvZomhgZ-20" value="" style="endArrow=none;html=1;" parent="1" source="OSURCzhRiH3PAvZomhgZ-16" target="OSURCzhRiH3PAvZomhgZ-15" edge="1">
                    <mxGeometry width="50" height="50" relative="1" as="geometry">
                        <mxPoint x="760" y="560" as="sourcePoint"/>
                        <mxPoint x="810" y="510" as="targetPoint"/>
                    </mxGeometry>
                </mxCell>
                <mxCell id="OSURCzhRiH3PAvZomhgZ-21" value="" style="endArrow=none;html=1;" parent="1" source="OSURCzhRiH3PAvZomhgZ-15" target="OSURCzhRiH3PAvZomhgZ-18" edge="1">
                    <mxGeometry width="50" height="50" relative="1" as="geometry">
                        <mxPoint x="390" y="433.75" as="sourcePoint"/>
                        <mxPoint x="590" y="446.25" as="targetPoint"/>
                    </mxGeometry>
                </mxCell>
                <mxCell id="OSURCzhRiH3PAvZomhgZ-23" value="đầu vào của bigdata" style="shape=note;whiteSpace=wrap;html=1;backgroundOutline=1;darkOpacity=0.05;size=11;" parent="1" vertex="1">
                    <mxGeometry x="70" y="514" width="80" height="60" as="geometry"/>
                </mxCell>
                <mxCell id="OSURCzhRiH3PAvZomhgZ-24" value="" style="endArrow=none;dashed=1;html=1;" parent="1" source="OSURCzhRiH3PAvZomhgZ-18" target="OSURCzhRiH3PAvZomhgZ-23" edge="1">
                    <mxGeometry width="50" height="50" relative="1" as="geometry">
                        <mxPoint x="390" y="470" as="sourcePoint"/>
                        <mxPoint x="440" y="420" as="targetPoint"/>
                    </mxGeometry>
                </mxCell>
            </root>
        </mxGraphModel>
    </diagram>
    <diagram id="OwplYKMbJQ8uDqJmaV_w" name="architechture">
        <mxGraphModel dx="1067" dy="782" grid="1" gridSize="10" guides="1" tooltips="1" connect="1" arrows="1" fold="1" page="1" pageScale="1" pageWidth="1100" pageHeight="850" math="0" shadow="0">
            <root>
                <mxCell id="ZksIYgAEFsAj02btygrj-0"/>
                <mxCell id="ZksIYgAEFsAj02btygrj-1" parent="ZksIYgAEFsAj02btygrj-0"/>
                <mxCell id="NgCz3xmZE6LhhPkUiRDd-0" value="architecture" style="whiteSpace=wrap;html=1;fillColor=#60a917;strokeColor=#2D7600;fontColor=#ffffff;" parent="ZksIYgAEFsAj02btygrj-1" vertex="1">
                    <mxGeometry x="360" y="310" width="120" height="60" as="geometry"/>
                </mxCell>
                <mxCell id="NgCz3xmZE6LhhPkUiRDd-1" value="Broker" style="whiteSpace=wrap;html=1;" parent="ZksIYgAEFsAj02btygrj-1" vertex="1">
                    <mxGeometry x="310" y="460" width="120" height="60" as="geometry"/>
                </mxCell>
                <mxCell id="NgCz3xmZE6LhhPkUiRDd-2" value="" style="endArrow=none;html=1;" parent="ZksIYgAEFsAj02btygrj-1" source="NgCz3xmZE6LhhPkUiRDd-1" target="NgCz3xmZE6LhhPkUiRDd-0" edge="1">
                    <mxGeometry width="50" height="50" relative="1" as="geometry">
                        <mxPoint x="250" y="114.73684210526312" as="sourcePoint"/>
                        <mxPoint x="180" y="85.26315789473688" as="targetPoint"/>
                    </mxGeometry>
                </mxCell>
                <mxCell id="NgCz3xmZE6LhhPkUiRDd-3" value="nhận từ producer, gửi, hoặc response fetch request cho consumer" style="shape=note;whiteSpace=wrap;html=1;backgroundOutline=1;darkOpacity=0.05;size=11;align=left;" parent="ZksIYgAEFsAj02btygrj-1" vertex="1">
                    <mxGeometry x="285" y="570" width="125" height="70" as="geometry"/>
                </mxCell>
                <mxCell id="NgCz3xmZE6LhhPkUiRDd-4" value="" style="endArrow=none;dashed=1;html=1;" parent="ZksIYgAEFsAj02btygrj-1" source="NgCz3xmZE6LhhPkUiRDd-3" target="NgCz3xmZE6LhhPkUiRDd-1" edge="1">
                    <mxGeometry width="50" height="50" relative="1" as="geometry">
                        <mxPoint x="150.90909090909076" y="380" as="sourcePoint"/>
                        <mxPoint x="169.090909090909" y="430" as="targetPoint"/>
                    </mxGeometry>
                </mxCell>
                <mxCell id="NgCz3xmZE6LhhPkUiRDd-5" value="Cluster" style="whiteSpace=wrap;html=1;" parent="ZksIYgAEFsAj02btygrj-1" vertex="1">
                    <mxGeometry x="210" y="370" width="120" height="60" as="geometry"/>
                </mxCell>
                <mxCell id="NgCz3xmZE6LhhPkUiRDd-6" value="" style="endArrow=none;html=1;" parent="ZksIYgAEFsAj02btygrj-1" source="NgCz3xmZE6LhhPkUiRDd-5" target="NgCz3xmZE6LhhPkUiRDd-0" edge="1">
                    <mxGeometry width="50" height="50" relative="1" as="geometry">
                        <mxPoint x="493.7234042553191" y="404" as="sourcePoint"/>
                        <mxPoint x="441.2765957446809" y="370" as="targetPoint"/>
                    </mxGeometry>
                </mxCell>
                <mxCell id="NgCz3xmZE6LhhPkUiRDd-7" value="" style="endArrow=none;dashed=1;html=1;" parent="ZksIYgAEFsAj02btygrj-1" source="NgCz3xmZE6LhhPkUiRDd-8" target="NgCz3xmZE6LhhPkUiRDd-5" edge="1">
                    <mxGeometry width="50" height="50" relative="1" as="geometry">
                        <mxPoint x="640" y="481.1428571428571" as="sourcePoint"/>
                        <mxPoint x="600" y="462.28571428571433" as="targetPoint"/>
                    </mxGeometry>
                </mxCell>
                <mxCell id="NgCz3xmZE6LhhPkUiRDd-8" value="thường gồm 3 broker để chịu lỗi" style="shape=note;whiteSpace=wrap;html=1;backgroundOutline=1;darkOpacity=0.05;size=11;" parent="ZksIYgAEFsAj02btygrj-1" vertex="1">
                    <mxGeometry x="130" y="530" width="120" height="60" as="geometry"/>
                </mxCell>
                <mxCell id="NgCz3xmZE6LhhPkUiRDd-9" value="" style="endArrow=none;dashed=1;html=1;" parent="ZksIYgAEFsAj02btygrj-1" source="NgCz3xmZE6LhhPkUiRDd-5" target="NgCz3xmZE6LhhPkUiRDd-1" edge="1">
                    <mxGeometry width="50" height="50" relative="1" as="geometry">
                        <mxPoint x="412.5" y="550" as="sourcePoint"/>
                        <mxPoint x="402.5" y="510" as="targetPoint"/>
                    </mxGeometry>
                </mxCell>
                <mxCell id="NgCz3xmZE6LhhPkUiRDd-10" value="Topic" style="whiteSpace=wrap;html=1;" parent="ZksIYgAEFsAj02btygrj-1" vertex="1">
                    <mxGeometry x="360" y="200" width="120" height="60" as="geometry"/>
                </mxCell>
                <mxCell id="NgCz3xmZE6LhhPkUiRDd-11" value="" style="endArrow=none;html=1;" parent="ZksIYgAEFsAj02btygrj-1" source="NgCz3xmZE6LhhPkUiRDd-10" target="NgCz3xmZE6LhhPkUiRDd-0" edge="1">
                    <mxGeometry width="50" height="50" relative="1" as="geometry">
                        <mxPoint x="491.875" y="390" as="sourcePoint"/>
                        <mxPoint x="453.125" y="370" as="targetPoint"/>
                    </mxGeometry>
                </mxCell>
                <mxCell id="NgCz3xmZE6LhhPkUiRDd-12" value="message phân vào topic dễ quản lí, phân loại (pub / sub)" style="shape=note;whiteSpace=wrap;html=1;backgroundOutline=1;darkOpacity=0.05;size=11;align=left;" parent="ZksIYgAEFsAj02btygrj-1" vertex="1">
                    <mxGeometry x="210" y="100" width="120" height="50" as="geometry"/>
                </mxCell>
                <mxCell id="NgCz3xmZE6LhhPkUiRDd-13" value="" style="endArrow=none;dashed=1;html=1;" parent="ZksIYgAEFsAj02btygrj-1" source="NgCz3xmZE6LhhPkUiRDd-12" target="NgCz3xmZE6LhhPkUiRDd-10" edge="1">
                    <mxGeometry width="50" height="50" relative="1" as="geometry">
                        <mxPoint x="380.58823529411757" y="200" as="sourcePoint"/>
                        <mxPoint x="526.1206896551723" y="494" as="targetPoint"/>
                    </mxGeometry>
                </mxCell>
                <mxCell id="NgCz3xmZE6LhhPkUiRDd-14" value="khả năng scale or phân bổ (&lt;b&gt;partition&lt;/b&gt;) across servers, điều này có thể làm mất thứ tụ message trong cùng topic, do vậy muốn đảm bảo thứ tự thì để partition=1 thì sẽ đảm bảo thứ tự" style="shape=note;whiteSpace=wrap;html=1;backgroundOutline=1;darkOpacity=0.05;size=11;align=left;" parent="ZksIYgAEFsAj02btygrj-1" vertex="1">
                    <mxGeometry x="360" y="40" width="160" height="116" as="geometry"/>
                </mxCell>
                <mxCell id="NgCz3xmZE6LhhPkUiRDd-15" value="" style="endArrow=none;dashed=1;html=1;" parent="ZksIYgAEFsAj02btygrj-1" source="NgCz3xmZE6LhhPkUiRDd-14" target="NgCz3xmZE6LhhPkUiRDd-10" edge="1">
                    <mxGeometry width="50" height="50" relative="1" as="geometry">
                        <mxPoint x="478.2142857142858" y="206" as="sourcePoint"/>
                        <mxPoint x="586.25" y="290" as="targetPoint"/>
                    </mxGeometry>
                </mxCell>
                <mxCell id="NgCz3xmZE6LhhPkUiRDd-16" value="Message" style="whiteSpace=wrap;html=1;" parent="ZksIYgAEFsAj02btygrj-1" vertex="1">
                    <mxGeometry x="530" y="334" width="120" height="60" as="geometry"/>
                </mxCell>
                <mxCell id="NgCz3xmZE6LhhPkUiRDd-17" value="" style="endArrow=none;html=1;" parent="ZksIYgAEFsAj02btygrj-1" source="NgCz3xmZE6LhhPkUiRDd-16" target="NgCz3xmZE6LhhPkUiRDd-0" edge="1">
                    <mxGeometry width="50" height="50" relative="1" as="geometry">
                        <mxPoint x="490" y="315.48387096774195" as="sourcePoint"/>
                        <mxPoint x="455" y="324.51612903225805" as="targetPoint"/>
                    </mxGeometry>
                </mxCell>
                <mxCell id="NgCz3xmZE6LhhPkUiRDd-18" value="message key (không bắt buộc) có thể giúp phân bổ message vào &lt;b&gt;partition&lt;/b&gt; hợp lí, (scale system), từ đây message cùng một topic có thể đi vào partition thuộc các server khác nhau" style="shape=note;whiteSpace=wrap;html=1;backgroundOutline=1;darkOpacity=0.05;size=11;align=left;" parent="ZksIYgAEFsAj02btygrj-1" vertex="1">
                    <mxGeometry x="550" y="110" width="160" height="104" as="geometry"/>
                </mxCell>
                <mxCell id="NgCz3xmZE6LhhPkUiRDd-19" value="" style="endArrow=none;dashed=1;html=1;" parent="ZksIYgAEFsAj02btygrj-1" source="NgCz3xmZE6LhhPkUiRDd-18" target="NgCz3xmZE6LhhPkUiRDd-16" edge="1">
                    <mxGeometry width="50" height="50" relative="1" as="geometry">
                        <mxPoint x="675.5263157894738" y="264" as="sourcePoint"/>
                        <mxPoint x="640" y="289.33333333333337" as="targetPoint"/>
                    </mxGeometry>
                </mxCell>
                <mxCell id="NgCz3xmZE6LhhPkUiRDd-20" value="việc gửi các message kích thước nhỏ có thể overhead, do vậy kafka hỗ trợ &lt;b&gt;batches&lt;/b&gt;, cái này là trade-off độ trễ và thông lượng khi batches có thể compress lại cho gọn hơn nữa" style="shape=note;whiteSpace=wrap;html=1;backgroundOutline=1;darkOpacity=0.05;size=11;align=left;" parent="ZksIYgAEFsAj02btygrj-1" vertex="1">
                    <mxGeometry x="750" y="196" width="170" height="106" as="geometry"/>
                </mxCell>
                <mxCell id="NgCz3xmZE6LhhPkUiRDd-21" value="" style="endArrow=none;dashed=1;html=1;" parent="ZksIYgAEFsAj02btygrj-1" source="NgCz3xmZE6LhhPkUiRDd-20" target="NgCz3xmZE6LhhPkUiRDd-16" edge="1">
                    <mxGeometry width="50" height="50" relative="1" as="geometry">
                        <mxPoint x="700" y="411.71428571428567" as="sourcePoint"/>
                        <mxPoint x="660" y="396.6285714285714" as="targetPoint"/>
                    </mxGeometry>
                </mxCell>
                <mxCell id="NgCz3xmZE6LhhPkUiRDd-22" value="" style="endArrow=none;html=1;" parent="ZksIYgAEFsAj02btygrj-1" source="NgCz3xmZE6LhhPkUiRDd-23" target="NgCz3xmZE6LhhPkUiRDd-0" edge="1">
                    <mxGeometry width="50" height="50" relative="1" as="geometry">
                        <mxPoint x="550" y="460" as="sourcePoint"/>
                        <mxPoint x="403.0769230769231" y="370" as="targetPoint"/>
                    </mxGeometry>
                </mxCell>
                <mxCell id="NgCz3xmZE6LhhPkUiRDd-23" value="Consumer" style="whiteSpace=wrap;html=1;" parent="ZksIYgAEFsAj02btygrj-1" vertex="1">
                    <mxGeometry x="450" y="440" width="120" height="60" as="geometry"/>
                </mxCell>
                <mxCell id="NgCz3xmZE6LhhPkUiRDd-24" value="subscribe vào một topic và nghe ngóng từ topic này" style="shape=note;whiteSpace=wrap;html=1;backgroundOutline=1;darkOpacity=0.05;size=11;align=left;" parent="ZksIYgAEFsAj02btygrj-1" vertex="1">
                    <mxGeometry x="620" y="537" width="90" height="66" as="geometry"/>
                </mxCell>
                <mxCell id="NgCz3xmZE6LhhPkUiRDd-25" value="" style="endArrow=none;dashed=1;html=1;" parent="ZksIYgAEFsAj02btygrj-1" source="NgCz3xmZE6LhhPkUiRDd-24" target="NgCz3xmZE6LhhPkUiRDd-23" edge="1">
                    <mxGeometry width="50" height="50" relative="1" as="geometry">
                        <mxPoint x="693.6416184971097" y="494" as="sourcePoint"/>
                        <mxPoint x="623.4104046242774" y="404" as="targetPoint"/>
                    </mxGeometry>
                </mxCell>
                <mxCell id="NgCz3xmZE6LhhPkUiRDd-26" value="client có một biến offset cho biết đã đọc đến message nào: điều này sẽ dùng khi consumer down sau đó sẽ tiếp tục đọc message mà không bỏ lỡ cái nào" style="shape=note;whiteSpace=wrap;html=1;backgroundOutline=1;darkOpacity=0.05;size=11;align=left;" parent="ZksIYgAEFsAj02btygrj-1" vertex="1">
                    <mxGeometry x="570" y="700" width="180" height="82" as="geometry"/>
                </mxCell>
                <mxCell id="NgCz3xmZE6LhhPkUiRDd-27" value="" style="endArrow=none;dashed=1;html=1;" parent="ZksIYgAEFsAj02btygrj-1" source="NgCz3xmZE6LhhPkUiRDd-26" target="NgCz3xmZE6LhhPkUiRDd-23" edge="1">
                    <mxGeometry width="50" height="50" relative="1" as="geometry">
                        <mxPoint x="607.9310344827586" y="650" as="sourcePoint"/>
                        <mxPoint x="535.5172413793102" y="510" as="targetPoint"/>
                    </mxGeometry>
                </mxCell>
                <mxCell id="NgCz3xmZE6LhhPkUiRDd-28" value="" style="endArrow=none;dashed=1;html=1;" parent="ZksIYgAEFsAj02btygrj-1" source="NgCz3xmZE6LhhPkUiRDd-29" target="NgCz3xmZE6LhhPkUiRDd-23" edge="1">
                    <mxGeometry width="50" height="50" relative="1" as="geometry">
                        <mxPoint x="482.47349823321565" y="716" as="sourcePoint"/>
                        <mxPoint x="515.2296819787987" y="510" as="targetPoint"/>
                    </mxGeometry>
                </mxCell>
                <mxCell id="NgCz3xmZE6LhhPkUiRDd-29" value="do việc phân bổ message vào partition kể trên thì: group các consumer cũng từ đó có thể sub vào một partition cụ thể, do đó sẽ tăng thông lượng, một thằng down thì thằng khác kiêm luôn partition của thằng này" style="shape=note;whiteSpace=wrap;html=1;backgroundOutline=1;darkOpacity=0.05;size=11;align=left;" parent="ZksIYgAEFsAj02btygrj-1" vertex="1">
                    <mxGeometry x="340" y="680" width="190" height="104" as="geometry"/>
                </mxCell>
                <mxCell id="NgCz3xmZE6LhhPkUiRDd-30" value="" style="endArrow=none;dashed=1;html=1;" parent="ZksIYgAEFsAj02btygrj-1" source="NgCz3xmZE6LhhPkUiRDd-31" target="NgCz3xmZE6LhhPkUiRDd-5" edge="1">
                    <mxGeometry width="50" height="50" relative="1" as="geometry">
                        <mxPoint x="150" y="437.26315789473665" as="sourcePoint"/>
                        <mxPoint x="213.0769230769231" y="440" as="targetPoint"/>
                    </mxGeometry>
                </mxCell>
                <mxCell id="NgCz3xmZE6LhhPkUiRDd-31" value="cũng phân chia master-slaves, mọi trao đổi phải thông qua master, master down, slave lên thay" style="shape=note;whiteSpace=wrap;html=1;backgroundOutline=1;darkOpacity=0.05;size=11;align=left;" parent="ZksIYgAEFsAj02btygrj-1" vertex="1">
                    <mxGeometry x="130" y="240" width="140" height="70" as="geometry"/>
                </mxCell>
                <mxCell id="NgCz3xmZE6LhhPkUiRDd-32" value="được đảm bảo thứ tự trong một partition, nhưng giữa các partition thì không" style="shape=note;whiteSpace=wrap;html=1;backgroundOutline=1;darkOpacity=0.05;size=11;align=left;" parent="ZksIYgAEFsAj02btygrj-1" vertex="1">
                    <mxGeometry x="755" y="323" width="160" height="71" as="geometry"/>
                </mxCell>
                <mxCell id="NgCz3xmZE6LhhPkUiRDd-33" value="" style="endArrow=none;dashed=1;html=1;" parent="ZksIYgAEFsAj02btygrj-1" source="NgCz3xmZE6LhhPkUiRDd-32" target="NgCz3xmZE6LhhPkUiRDd-16" edge="1">
                    <mxGeometry width="50" height="50" relative="1" as="geometry">
                        <mxPoint x="710" y="330" as="sourcePoint"/>
                        <mxPoint x="660" y="350" as="targetPoint"/>
                    </mxGeometry>
                </mxCell>
                <mxCell id="NgCz3xmZE6LhhPkUiRDd-34" value="&quot;at least once message&quot;&lt;br&gt;tức không đảm bảo message không bị lặp, để đảm bảo k bị lặp thì cần thêm code, app khác, ..." style="shape=note;whiteSpace=wrap;html=1;backgroundOutline=1;darkOpacity=0.05;size=11;align=left;" parent="ZksIYgAEFsAj02btygrj-1" vertex="1">
                    <mxGeometry x="760" y="429" width="160" height="71" as="geometry"/>
                </mxCell>
                <mxCell id="NgCz3xmZE6LhhPkUiRDd-35" value="" style="endArrow=none;dashed=1;html=1;" parent="ZksIYgAEFsAj02btygrj-1" source="NgCz3xmZE6LhhPkUiRDd-34" target="NgCz3xmZE6LhhPkUiRDd-16" edge="1">
                    <mxGeometry width="50" height="50" relative="1" as="geometry">
                        <mxPoint x="800" y="377.92857142857133" as="sourcePoint"/>
                        <mxPoint x="660" y="375.17857142857133" as="targetPoint"/>
                    </mxGeometry>
                </mxCell>
                <mxCell id="NgCz3xmZE6LhhPkUiRDd-36" value="có live time có thể tuning." style="shape=note;whiteSpace=wrap;html=1;backgroundOutline=1;darkOpacity=0.05;size=11;align=left;" parent="ZksIYgAEFsAj02btygrj-1" vertex="1">
                    <mxGeometry x="740" y="527" width="130" height="43" as="geometry"/>
                </mxCell>
                <mxCell id="NgCz3xmZE6LhhPkUiRDd-37" value="" style="endArrow=none;dashed=1;html=1;" parent="ZksIYgAEFsAj02btygrj-1" source="NgCz3xmZE6LhhPkUiRDd-36" target="NgCz3xmZE6LhhPkUiRDd-16" edge="1">
                    <mxGeometry width="50" height="50" relative="1" as="geometry">
                        <mxPoint x="835" y="453.07936507936506" as="sourcePoint"/>
                        <mxPoint x="660" y="394.19047619047615" as="targetPoint"/>
                    </mxGeometry>
                </mxCell>
            </root>
        </mxGraphModel>
    </diagram>
</mxfile>